<mxfile host="app.diagrams.net" modified="2022-01-19T18:28:14.261Z" agent="5.0 (Windows)" etag="yzzMf3ex-LrhSLCIyc6H" version="16.2.7" type="github">
  <diagram id="kgpKYQtTHZ0yAKxKKP6v" name="Page-1">
    <mxGraphModel dx="782" dy="351" grid="1" gridSize="10" guides="1" tooltips="1" connect="1" arrows="1" fold="1" page="1" pageScale="1" pageWidth="850" pageHeight="1100" math="0" shadow="0">
      <root>
        <mxCell id="0" />
        <mxCell id="1" parent="0" />
        <mxCell id="3nuBFxr9cyL0pnOWT2aG-1" value=":Recommendation Engine" style="shape=umlLifeline;perimeter=lifelinePerimeter;container=1;collapsible=0;recursiveResize=0;rounded=0;shadow=0;strokeWidth=1;whiteSpace=wrap;fillColor=#fff2cc;strokeColor=#A30000;" parent="1" vertex="1">
          <mxGeometry x="160" y="10" width="100" height="350" as="geometry" />
        </mxCell>
        <mxCell id="eqVCXnkqpKuirF4SPhx6-9" value="7. Applies filtering based on user preferences" style="verticalAlign=bottom;endArrow=block;shadow=0;strokeWidth=1;" edge="1" parent="3nuBFxr9cyL0pnOWT2aG-1">
          <mxGeometry x="-0.2453" y="30" relative="1" as="geometry">
            <mxPoint x="50" y="270" as="sourcePoint" />
            <mxPoint x="50" y="296" as="targetPoint" />
            <Array as="points">
              <mxPoint x="90" y="270" />
              <mxPoint x="90" y="296" />
            </Array>
            <mxPoint as="offset" />
          </mxGeometry>
        </mxCell>
        <mxCell id="3nuBFxr9cyL0pnOWT2aG-5" value=":Geo Sharded Indexer" style="shape=umlLifeline;perimeter=lifelinePerimeter;container=1;collapsible=0;recursiveResize=0;rounded=0;shadow=0;strokeWidth=1;whiteSpace=wrap;fillColor=#fff2cc;strokeColor=#A30000;" parent="1" vertex="1">
          <mxGeometry x="440" y="10" width="80" height="350" as="geometry" />
        </mxCell>
        <mxCell id="3nuBFxr9cyL0pnOWT2aG-8" value="2. Forwards the user request(lat, long, radius)" style="verticalAlign=bottom;endArrow=block;shadow=0;strokeWidth=1;entryX=0.5;entryY=0.317;entryDx=0;entryDy=0;entryPerimeter=0;" parent="1" target="3nuBFxr9cyL0pnOWT2aG-5" edge="1">
          <mxGeometry relative="1" as="geometry">
            <mxPoint x="210" y="121" as="sourcePoint" />
            <mxPoint x="345" y="160.0000000000001" as="targetPoint" />
          </mxGeometry>
        </mxCell>
        <mxCell id="3nuBFxr9cyL0pnOWT2aG-9" value="5. Returns the list of nearby users from nearby geo-shards" style="verticalAlign=bottom;endArrow=block;shadow=0;strokeWidth=1;exitX=0.488;exitY=0.62;exitDx=0;exitDy=0;exitPerimeter=0;" parent="1" source="eqVCXnkqpKuirF4SPhx6-6" edge="1">
          <mxGeometry relative="1" as="geometry">
            <mxPoint x="345" y="200" as="sourcePoint" />
            <mxPoint x="480" y="227" as="targetPoint" />
          </mxGeometry>
        </mxCell>
        <mxCell id="eqVCXnkqpKuirF4SPhx6-7" style="edgeStyle=orthogonalEdgeStyle;rounded=0;orthogonalLoop=1;jettySize=auto;html=1;fontSize=14;startArrow=none;startFill=0;endArrow=oval;endFill=1;strokeColor=#000000;strokeWidth=1;dashed=1;" edge="1" parent="1" source="eqVCXnkqpKuirF4SPhx6-1">
          <mxGeometry relative="1" as="geometry">
            <mxPoint x="25" y="360" as="targetPoint" />
          </mxGeometry>
        </mxCell>
        <mxCell id="eqVCXnkqpKuirF4SPhx6-8" value="Bob" style="edgeLabel;html=1;align=center;verticalAlign=middle;resizable=0;points=[];fontSize=14;" vertex="1" connectable="0" parent="eqVCXnkqpKuirF4SPhx6-7">
          <mxGeometry x="-0.9161" y="1" relative="1" as="geometry">
            <mxPoint as="offset" />
          </mxGeometry>
        </mxCell>
        <mxCell id="eqVCXnkqpKuirF4SPhx6-1" value="" style="shape=umlActor;verticalLabelPosition=bottom;verticalAlign=top;html=1;outlineConnect=0;labelBackgroundColor=#CCCCCC;fontSize=14;strokeColor=#A30000;fillColor=#fff2cc;" vertex="1" parent="1">
          <mxGeometry x="10" y="10" width="30" height="40" as="geometry" />
        </mxCell>
        <mxCell id="eqVCXnkqpKuirF4SPhx6-6" value=":Geo Sharded Index" style="shape=umlLifeline;perimeter=lifelinePerimeter;container=1;collapsible=0;recursiveResize=0;rounded=0;shadow=0;strokeWidth=1;whiteSpace=wrap;fillColor=#fff2cc;strokeColor=#A30000;" vertex="1" parent="1">
          <mxGeometry x="680" y="10" width="80" height="350" as="geometry" />
        </mxCell>
        <mxCell id="3nuBFxr9cyL0pnOWT2aG-3" value="1. Makes a request to fetch the &#xa;recommendations of other users" style="verticalAlign=bottom;startArrow=none;endArrow=block;startSize=8;shadow=0;strokeWidth=1;startFill=0;" parent="1" edge="1">
          <mxGeometry relative="1" as="geometry">
            <mxPoint x="20" y="100" as="sourcePoint" />
            <mxPoint x="210" y="100" as="targetPoint" />
          </mxGeometry>
        </mxCell>
        <mxCell id="eqVCXnkqpKuirF4SPhx6-10" value="4. Makes the request to fetch the nearby users&#xa;from geo-shards returned by S2" style="verticalAlign=bottom;endArrow=block;shadow=0;strokeWidth=1;" edge="1" parent="1">
          <mxGeometry relative="1" as="geometry">
            <mxPoint x="480" y="200" as="sourcePoint" />
            <mxPoint x="720" y="200" as="targetPoint" />
          </mxGeometry>
        </mxCell>
        <mxCell id="eqVCXnkqpKuirF4SPhx6-11" value="6. Forwards the list" style="verticalAlign=bottom;endArrow=block;shadow=0;strokeWidth=1;" edge="1" parent="1" target="3nuBFxr9cyL0pnOWT2aG-1">
          <mxGeometry relative="1" as="geometry">
            <mxPoint x="480" y="237" as="sourcePoint" />
            <mxPoint x="490" y="237" as="targetPoint" />
          </mxGeometry>
        </mxCell>
        <mxCell id="eqVCXnkqpKuirF4SPhx6-12" value="3. Get all the&#xa;geoshards we need&#xa;to query with using &#xa;Google S2 library" style="verticalAlign=bottom;endArrow=block;shadow=0;strokeWidth=1;" edge="1" parent="1">
          <mxGeometry x="-0.1667" y="10" relative="1" as="geometry">
            <mxPoint x="480" y="140" as="sourcePoint" />
            <mxPoint x="480" y="160" as="targetPoint" />
            <Array as="points">
              <mxPoint x="530" y="140" />
              <mxPoint x="530" y="160" />
            </Array>
            <mxPoint as="offset" />
          </mxGeometry>
        </mxCell>
        <mxCell id="eqVCXnkqpKuirF4SPhx6-13" value="8. Returns the list of recommended users" style="verticalAlign=bottom;endArrow=block;shadow=0;strokeWidth=1;" edge="1" parent="1">
          <mxGeometry relative="1" as="geometry">
            <mxPoint x="211" y="330" as="sourcePoint" />
            <mxPoint x="20" y="330" as="targetPoint" />
          </mxGeometry>
        </mxCell>
      </root>
    </mxGraphModel>
  </diagram>
</mxfile>
